<svg id="visual" viewBox="0 0 900 600" width="900" height="600" xmlns="http://www.w3.org/2000/svg" xmlns:xlink="http://www.w3.org/1999/xlink" version="1.1"><rect x="0" y="0" width="900" height="600" fill="#F7CACA"></rect><path d="M0 86L21.5 93.5C43 101 86 116 128.8 105.7C171.7 95.3 214.3 59.7 257.2 57C300 54.3 343 84.7 385.8 95.2C428.7 105.7 471.3 96.3 514.2 85.8C557 75.3 600 63.7 642.8 70.2C685.7 76.7 728.3 101.3 771.2 119.3C814 137.3 857 148.7 878.5 154.3L900 160L900 0L878.5 0C857 0 814 0 771.2 0C728.3 0 685.7 0 642.8 0C600 0 557 0 514.2 0C471.3 0 428.7 0 385.8 0C343 0 300 0 257.2 0C214.3 0 171.7 0 128.8 0C86 0 43 0 21.5 0L0 0Z" fill="#ff1515" stroke-linecap="round" stroke-linejoin="miter"></path></svg>